# xmcd
#
# Track frame offsets: 
#        182
#        26245
#        51920
#        71090
#        90685
#        116895
#        157852
#        175827
#        205790
#        221150
#        241287
#
# Disc length: 3590 seconds
#
# Revision: 2
# Processed by: cddbd v1.5.2PL0 Copyright (c) Steve Scherf et al.
# Submitted via: ExactAudioCopy v0.99pb4
#
DISCID=9e0e040b
DTITLE=Jimmy Johnson - I'm a Jockey
DYEAR=1994
DGENRE=Blues
TTITLE0=That Will Never Do
TTITLE1=Jockey
TTITLE2=Engine Number 9
TTITLE3=My Ring
TTITLE4=Highway 13
TTITLE5=As The Years Go Passing By
TTITLE6=Black and White Wall
TTITLE7=The Highway Is Like A Woman
TTITLE8=In The Midnight Hour
TTITLE9=End Of A Rainbow
TTITLE10=Look Over Yonders's Wall
EXTD=
EXTT0=
EXTT1=
EXTT2=
EXTT3=
EXTT4=
EXTT5=
EXTT6=
EXTT7=
EXTT8=
EXTT9=
EXTT10=
PLAYORDER=
